<?xml version="1.0" encoding="UTF-8" standalone="no"?>
<svg
   id="svg"
   version="1.1"
   width="74.498276"
   height="67.888657"
   viewBox="0 0 74.498276 67.888657"
   sodipodi:docname="plant-logo.svg"
   xmlns:inkscape="http://www.inkscape.org/namespaces/inkscape"
   xmlns:sodipodi="http://sodipodi.sourceforge.net/DTD/sodipodi-0.dtd"
   xmlns="http://www.w3.org/2000/svg"
   xmlns:svg="http://www.w3.org/2000/svg">
  <defs
     id="defs1" />
  <sodipodi:namedview
     id="namedview1"
     pagecolor="#ffffff"
     bordercolor="#000000"
     borderopacity="0.25"
     inkscape:showpageshadow="2"
     inkscape:pageopacity="0.0"
     inkscape:pagecheckerboard="0"
     inkscape:deskcolor="#d1d1d1" />
  <g
     id="svgg"
     transform="translate(-162.52142,-78.550491)">
    <path
       id="path0"
       d="m 199.636,78.75 c -6.649,0.7 -13.402,3.571 -18.351,7.801 -1.411,1.206 -1.291,1.241 -2.456,-0.717 -2.733,-4.594 -5.592,-6.599 -9.141,-6.411 -7.54,0.4 -7.378,9.501 0.304,17.135 2.105,2.092 2.125,2.15 1.362,4.028 -0.287,0.705 -0.781,2.291 -1.1,3.525 l -0.578,2.243 -2.021,0.98 c -6.941,3.364 -6.811,10.374 0.193,10.374 1.79,0 1.598,-0.251 2.421,3.169 5.072,21.087 29.172,31.84 48.66,21.711 1.416,-0.736 2.666,-1.338 2.778,-1.338 0.763,0 7.832,-7.074 9.373,-9.38 16.161,-24.182 -2.759,-56.143 -31.444,-53.12 m -27.132,1.649 c 3.736,1.419 7.807,7.634 9.434,14.401 0.47,1.954 1.889,8.251 2.156,9.571 0.246,1.215 8.405,8.645 11.01,10.027 1.655,0.877 1.471,0.386 -1.056,-2.835 -4.2,-5.353 -6.455,-13.828 -5.095,-19.147 1.894,-7.403 9.071,-9.487 10.945,-3.178 0.738,2.485 0.378,5.01 -1.519,10.658 l -1.189,3.542 -0.001,5.506 -0.001,5.506 0.961,1.265 c 1.198,1.575 1.291,1.654 3.811,3.23 1.135,0.71 3.169,2.137 4.52,3.172 2.954,2.263 3.039,2.242 2.16,-0.527 -3.756,-11.837 0.296,-23.94 8.257,-24.662 5.783,-0.524 6.333,6.272 1.032,12.76 -4.235,5.183 -4.553,5.726 -5.838,9.992 -0.482,1.6 -1.009,3.166 -1.171,3.479 -0.735,1.421 -0.341,2.228 2.682,5.496 4.38,4.733 9.504,12.207 8.034,11.717 -0.131,-0.044 -0.794,-0.966 -1.473,-2.049 -3.581,-5.713 -8.783,-11.388 -11.413,-12.451 -3.316,-1.34 -4.606,-1.611 -5.864,-1.231 -0.613,0.186 -2.662,0.527 -4.553,0.758 -3.978,0.487 -4.472,0.655 -9.376,3.176 -4.194,2.157 -6.221,2.777 -8.555,2.618 -6.947,-0.472 -6.67,-7.821 0.421,-11.172 5.483,-2.592 14.903,-1.459 21.582,2.595 1.475,0.896 4.288,1.802 4.605,1.485 0.373,-0.373 -3.056,-3.021 -7.739,-5.976 -1.49,-0.94 -3.666,-2.406 -4.837,-3.259 -3.528,-2.569 -6.222,-3.583 -8.236,-3.1 -0.716,0.171 -2.465,0.456 -3.887,0.633 -2.908,0.362 -4.081,0.767 -7.631,2.631 -7.557,3.97 -13.675,1.988 -10.916,-3.534 2.902,-5.807 12.698,-6.563 21.996,-1.697 4.164,2.179 4.232,1.668 0.278,-2.094 -2.09,-1.989 -3.349,-3.011 -4.427,-3.595 -11.833,-6.409 -18.314,-14.467 -16.637,-20.684 0.76,-2.813 4.322,-4.246 7.53,-3.027"
       stroke="none"
       fill="#f3ecdb"
       fill-rule="evenodd" />
    <path
       id="path1"
       d="m 167.593,80.393 c -1.998,0.907 -2.906,2.771 -2.752,5.649 0.315,5.889 6.412,12.458 16.77,18.068 1.078,0.584 2.337,1.606 4.427,3.595 3.954,3.762 3.886,4.273 -0.278,2.094 -9.298,-4.866 -19.094,-4.11 -21.996,1.697 -2.759,5.522 3.359,7.504 10.916,3.534 3.55,-1.864 4.723,-2.269 7.631,-2.631 1.422,-0.177 3.171,-0.462 3.887,-0.633 2.014,-0.483 4.708,0.531 8.236,3.1 1.171,0.853 3.347,2.319 4.837,3.259 4.683,2.955 8.112,5.603 7.739,5.976 -0.317,0.317 -3.13,-0.589 -4.605,-1.485 -6.679,-4.054 -16.099,-5.187 -21.582,-2.595 -7.091,3.351 -7.368,10.7 -0.421,11.172 2.334,0.159 4.361,-0.461 8.555,-2.618 4.904,-2.521 5.398,-2.689 9.376,-3.176 1.891,-0.231 3.94,-0.572 4.553,-0.758 1.258,-0.38 2.548,-0.109 5.864,1.231 2.63,1.063 7.832,6.738 11.413,12.451 0.679,1.083 1.342,2.005 1.473,2.049 1.47,0.49 -3.654,-6.984 -8.034,-11.717 -3.023,-3.268 -3.417,-4.075 -2.682,-5.496 0.162,-0.313 0.689,-1.879 1.171,-3.479 1.285,-4.266 1.603,-4.809 5.838,-9.992 5.301,-6.488 4.751,-13.284 -1.032,-12.76 -7.961,0.722 -12.013,12.825 -8.257,24.662 0.879,2.769 0.794,2.79 -2.16,0.527 -1.351,-1.035 -3.385,-2.462 -4.52,-3.172 -2.52,-1.576 -2.613,-1.655 -3.811,-3.23 l -0.961,-1.265 0.001,-5.506 0.001,-5.506 1.189,-3.542 c 1.897,-5.648 2.257,-8.173 1.519,-10.658 -1.874,-6.309 -9.051,-4.225 -10.945,3.178 -1.36,5.319 0.895,13.794 5.095,19.147 2.527,3.221 2.711,3.712 1.056,2.835 -2.605,-1.382 -10.764,-8.812 -11.01,-10.027 -0.267,-1.32 -1.686,-7.617 -2.156,-9.571 -2.447,-10.178 -9.052,-16.811 -14.345,-14.407"
       stroke="none"
       fill="#adbe5d"
       fill-rule="evenodd" />
  </g>
</svg>
